<svg xmlns="http://www.w3.org/2000/svg" viewBox="0 0 120 120">
  <defs>
    <linearGradient id="grad" x1="0%" y1="0%" x2="100%" y2="100%">
      <stop offset="0%" stop-color="#f8c1dd"/>
      <stop offset="100%" stop-color="#d15ea9"/>
    </linearGradient>
  </defs>
  <circle cx="60" cy="60" r="58" fill="url(#grad)" />
  <g fill="#fff">
    <path d="M60 32c-6 0-11 4-12 10-4 0-8 4-8 8s4 8 8 8c1 6 6 10 12 10s11-4 12-10c4 0 8-4 8-8s-4-8-8-8c-1-6-6-10-12-10zm0 34c-8 0-14-6-14-14s6-14 14-14 14 6 14 14-6 14-14 14z"/>
  </g>
</svg>
